<mxfile host="app.diagrams.net" agent="Mozilla/5.0 (Macintosh; Intel Mac OS X 10_15_7) AppleWebKit/537.36 (KHTML, like Gecko) Chrome/140.0.0.0 Safari/537.36" version="28.2.5">
  <diagram name="Page-1" id="s3lB7I6dJ0L6eCbnQk_0">
    <mxGraphModel dx="946" dy="592" grid="1" gridSize="10" guides="1" tooltips="1" connect="1" arrows="1" fold="1" page="1" pageScale="1" pageWidth="827" pageHeight="1169" math="0" shadow="0">
      <root>
        <mxCell id="0" />
        <mxCell id="1" parent="0" />
        <mxCell id="22hJQKztaAWEVZTj3P5C-9" style="edgeStyle=orthogonalEdgeStyle;rounded=0;orthogonalLoop=1;jettySize=auto;html=1;" edge="1" parent="1" source="D-xqw-UxvCrUXcZRyzRA-1" target="D-xqw-UxvCrUXcZRyzRA-3">
          <mxGeometry relative="1" as="geometry" />
        </mxCell>
        <mxCell id="D-xqw-UxvCrUXcZRyzRA-1" value="" style="sketch=0;outlineConnect=0;gradientColor=none;fontColor=#545B64;strokeColor=none;fillColor=#879196;dashed=0;verticalLabelPosition=bottom;verticalAlign=top;align=center;html=1;fontSize=12;fontStyle=0;aspect=fixed;shape=mxgraph.aws4.illustration_users;pointerEvents=1" parent="1" vertex="1">
          <mxGeometry x="80" y="250" width="100" height="100" as="geometry" />
        </mxCell>
        <mxCell id="22hJQKztaAWEVZTj3P5C-10" style="edgeStyle=orthogonalEdgeStyle;rounded=0;orthogonalLoop=1;jettySize=auto;html=1;" edge="1" parent="1" source="D-xqw-UxvCrUXcZRyzRA-3" target="D-xqw-UxvCrUXcZRyzRA-1">
          <mxGeometry relative="1" as="geometry">
            <Array as="points">
              <mxPoint x="220" y="300" />
              <mxPoint x="220" y="300" />
            </Array>
          </mxGeometry>
        </mxCell>
        <mxCell id="22hJQKztaAWEVZTj3P5C-14" value="2" style="edgeLabel;html=1;align=center;verticalAlign=middle;resizable=0;points=[];" vertex="1" connectable="0" parent="22hJQKztaAWEVZTj3P5C-10">
          <mxGeometry x="0.1321" relative="1" as="geometry">
            <mxPoint as="offset" />
          </mxGeometry>
        </mxCell>
        <mxCell id="22hJQKztaAWEVZTj3P5C-15" style="edgeStyle=orthogonalEdgeStyle;rounded=0;orthogonalLoop=1;jettySize=auto;html=1;" edge="1" parent="1" source="D-xqw-UxvCrUXcZRyzRA-3" target="D-xqw-UxvCrUXcZRyzRA-5">
          <mxGeometry relative="1" as="geometry" />
        </mxCell>
        <mxCell id="D-xqw-UxvCrUXcZRyzRA-3" value="Static Website on S3" style="sketch=0;points=[[0,0,0],[0.25,0,0],[0.5,0,0],[0.75,0,0],[1,0,0],[0,1,0],[0.25,1,0],[0.5,1,0],[0.75,1,0],[1,1,0],[0,0.25,0],[0,0.5,0],[0,0.75,0],[1,0.25,0],[1,0.5,0],[1,0.75,0]];outlineConnect=0;fontColor=#232F3E;fillColor=#7AA116;strokeColor=#ffffff;dashed=0;verticalLabelPosition=bottom;verticalAlign=top;align=center;html=1;fontSize=12;fontStyle=0;aspect=fixed;shape=mxgraph.aws4.resourceIcon;resIcon=mxgraph.aws4.s3;" parent="1" vertex="1">
          <mxGeometry x="270" y="261" width="78" height="78" as="geometry" />
        </mxCell>
        <mxCell id="22hJQKztaAWEVZTj3P5C-12" style="edgeStyle=orthogonalEdgeStyle;rounded=0;orthogonalLoop=1;jettySize=auto;html=1;" edge="1" parent="1" source="D-xqw-UxvCrUXcZRyzRA-4" target="D-xqw-UxvCrUXcZRyzRA-1">
          <mxGeometry relative="1" as="geometry" />
        </mxCell>
        <mxCell id="D-xqw-UxvCrUXcZRyzRA-4" value="AWS Cognito&lt;br&gt;(Login service)" style="sketch=0;points=[[0,0,0],[0.25,0,0],[0.5,0,0],[0.75,0,0],[1,0,0],[0,1,0],[0.25,1,0],[0.5,1,0],[0.75,1,0],[1,1,0],[0,0.25,0],[0,0.5,0],[0,0.75,0],[1,0.25,0],[1,0.5,0],[1,0.75,0]];outlineConnect=0;fontColor=#232F3E;fillColor=#DD344C;strokeColor=#ffffff;dashed=0;verticalLabelPosition=bottom;verticalAlign=top;align=center;html=1;fontSize=12;fontStyle=0;aspect=fixed;shape=mxgraph.aws4.resourceIcon;resIcon=mxgraph.aws4.cognito;" parent="1" vertex="1">
          <mxGeometry x="91" y="460" width="78" height="78" as="geometry" />
        </mxCell>
        <mxCell id="22hJQKztaAWEVZTj3P5C-16" value="3" style="edgeStyle=orthogonalEdgeStyle;rounded=0;orthogonalLoop=1;jettySize=auto;html=1;" edge="1" parent="1" source="D-xqw-UxvCrUXcZRyzRA-5" target="D-xqw-UxvCrUXcZRyzRA-3">
          <mxGeometry relative="1" as="geometry">
            <Array as="points">
              <mxPoint x="390" y="300" />
              <mxPoint x="390" y="300" />
            </Array>
          </mxGeometry>
        </mxCell>
        <mxCell id="22hJQKztaAWEVZTj3P5C-21" style="edgeStyle=orthogonalEdgeStyle;rounded=0;orthogonalLoop=1;jettySize=auto;html=1;" edge="1" parent="1" source="D-xqw-UxvCrUXcZRyzRA-5" target="22hJQKztaAWEVZTj3P5C-18">
          <mxGeometry relative="1" as="geometry">
            <Array as="points">
              <mxPoint x="479" y="380" />
              <mxPoint x="588" y="380" />
            </Array>
          </mxGeometry>
        </mxCell>
        <mxCell id="22hJQKztaAWEVZTj3P5C-32" value="4" style="edgeLabel;html=1;align=center;verticalAlign=middle;resizable=0;points=[];" vertex="1" connectable="0" parent="22hJQKztaAWEVZTj3P5C-21">
          <mxGeometry x="0.0158" relative="1" as="geometry">
            <mxPoint as="offset" />
          </mxGeometry>
        </mxCell>
        <mxCell id="D-xqw-UxvCrUXcZRyzRA-5" value="API GW" style="sketch=0;points=[[0,0,0],[0.25,0,0],[0.5,0,0],[0.75,0,0],[1,0,0],[0,1,0],[0.25,1,0],[0.5,1,0],[0.75,1,0],[1,1,0],[0,0.25,0],[0,0.5,0],[0,0.75,0],[1,0.25,0],[1,0.5,0],[1,0.75,0]];outlineConnect=0;fontColor=#232F3E;fillColor=#E7157B;strokeColor=#ffffff;dashed=0;verticalLabelPosition=bottom;verticalAlign=top;align=center;html=1;fontSize=12;fontStyle=0;aspect=fixed;shape=mxgraph.aws4.resourceIcon;resIcon=mxgraph.aws4.api_gateway;" parent="1" vertex="1">
          <mxGeometry x="440" y="261" width="78" height="78" as="geometry" />
        </mxCell>
        <mxCell id="22hJQKztaAWEVZTj3P5C-24" style="edgeStyle=orthogonalEdgeStyle;rounded=0;orthogonalLoop=1;jettySize=auto;html=1;" edge="1" parent="1" source="D-xqw-UxvCrUXcZRyzRA-6" target="D-xqw-UxvCrUXcZRyzRA-7">
          <mxGeometry relative="1" as="geometry" />
        </mxCell>
        <mxCell id="D-xqw-UxvCrUXcZRyzRA-6" value="view_msg" style="sketch=0;points=[[0,0,0],[0.25,0,0],[0.5,0,0],[0.75,0,0],[1,0,0],[0,1,0],[0.25,1,0],[0.5,1,0],[0.75,1,0],[1,1,0],[0,0.25,0],[0,0.5,0],[0,0.75,0],[1,0.25,0],[1,0.5,0],[1,0.75,0]];outlineConnect=0;fontColor=#232F3E;fillColor=#ED7100;strokeColor=#ffffff;dashed=0;verticalLabelPosition=bottom;verticalAlign=top;align=center;html=1;fontSize=12;fontStyle=0;aspect=fixed;shape=mxgraph.aws4.resourceIcon;resIcon=mxgraph.aws4.lambda;" parent="1" vertex="1">
          <mxGeometry x="330" y="420" width="78" height="78" as="geometry" />
        </mxCell>
        <mxCell id="22hJQKztaAWEVZTj3P5C-25" style="edgeStyle=orthogonalEdgeStyle;rounded=0;orthogonalLoop=1;jettySize=auto;html=1;" edge="1" parent="1" source="D-xqw-UxvCrUXcZRyzRA-7" target="D-xqw-UxvCrUXcZRyzRA-6">
          <mxGeometry relative="1" as="geometry" />
        </mxCell>
        <mxCell id="D-xqw-UxvCrUXcZRyzRA-7" value="DynamoDB&lt;br&gt;EmailsTable" style="sketch=0;points=[[0,0,0],[0.25,0,0],[0.5,0,0],[0.75,0,0],[1,0,0],[0,1,0],[0.25,1,0],[0.5,1,0],[0.75,1,0],[1,1,0],[0,0.25,0],[0,0.5,0],[0,0.75,0],[1,0.25,0],[1,0.5,0],[1,0.75,0]];outlineConnect=0;fontColor=#232F3E;fillColor=#C925D1;strokeColor=#ffffff;dashed=0;verticalLabelPosition=bottom;verticalAlign=top;align=center;html=1;fontSize=12;fontStyle=0;aspect=fixed;shape=mxgraph.aws4.resourceIcon;resIcon=mxgraph.aws4.dynamodb;" parent="1" vertex="1">
          <mxGeometry x="330" y="585" width="78" height="78" as="geometry" />
        </mxCell>
        <mxCell id="D-xqw-UxvCrUXcZRyzRA-8" value="SES&lt;br&gt;(mail composition)" style="sketch=0;points=[[0,0,0],[0.25,0,0],[0.5,0,0],[0.75,0,0],[1,0,0],[0,1,0],[0.25,1,0],[0.5,1,0],[0.75,1,0],[1,1,0],[0,0.25,0],[0,0.5,0],[0,0.75,0],[1,0.25,0],[1,0.5,0],[1,0.75,0]];outlineConnect=0;fontColor=#232F3E;fillColor=#DD344C;strokeColor=#ffffff;dashed=0;verticalLabelPosition=bottom;verticalAlign=top;align=center;html=1;fontSize=12;fontStyle=0;aspect=fixed;shape=mxgraph.aws4.resourceIcon;resIcon=mxgraph.aws4.simple_email_service;" parent="1" vertex="1">
          <mxGeometry x="650" y="585" width="78" height="78" as="geometry" />
        </mxCell>
        <mxCell id="22hJQKztaAWEVZTj3P5C-11" style="edgeStyle=orthogonalEdgeStyle;rounded=0;orthogonalLoop=1;jettySize=auto;html=1;entryX=0.5;entryY=0;entryDx=0;entryDy=0;entryPerimeter=0;" edge="1" parent="1" source="D-xqw-UxvCrUXcZRyzRA-1" target="D-xqw-UxvCrUXcZRyzRA-4">
          <mxGeometry relative="1" as="geometry" />
        </mxCell>
        <mxCell id="22hJQKztaAWEVZTj3P5C-13" value="1" style="edgeLabel;html=1;align=center;verticalAlign=middle;resizable=0;points=[];" vertex="1" connectable="0" parent="22hJQKztaAWEVZTj3P5C-11">
          <mxGeometry x="-0.0909" relative="1" as="geometry">
            <mxPoint as="offset" />
          </mxGeometry>
        </mxCell>
        <mxCell id="22hJQKztaAWEVZTj3P5C-17" value="handle_inbound_msg" style="sketch=0;points=[[0,0,0],[0.25,0,0],[0.5,0,0],[0.75,0,0],[1,0,0],[0,1,0],[0.25,1,0],[0.5,1,0],[0.75,1,0],[1,1,0],[0,0.25,0],[0,0.5,0],[0,0.75,0],[1,0.25,0],[1,0.5,0],[1,0.75,0]];outlineConnect=0;fontColor=#232F3E;fillColor=#ED7100;strokeColor=#ffffff;dashed=0;verticalLabelPosition=bottom;verticalAlign=top;align=center;html=1;fontSize=12;fontStyle=0;aspect=fixed;shape=mxgraph.aws4.resourceIcon;resIcon=mxgraph.aws4.lambda;" vertex="1" parent="1">
          <mxGeometry x="440" y="420" width="78" height="78" as="geometry" />
        </mxCell>
        <mxCell id="22hJQKztaAWEVZTj3P5C-30" style="edgeStyle=orthogonalEdgeStyle;rounded=0;orthogonalLoop=1;jettySize=auto;html=1;" edge="1" parent="1" source="22hJQKztaAWEVZTj3P5C-18" target="D-xqw-UxvCrUXcZRyzRA-8">
          <mxGeometry relative="1" as="geometry">
            <Array as="points">
              <mxPoint x="588" y="540" />
              <mxPoint x="689" y="540" />
            </Array>
          </mxGeometry>
        </mxCell>
        <mxCell id="22hJQKztaAWEVZTj3P5C-33" value="Text" style="edgeLabel;html=1;align=center;verticalAlign=middle;resizable=0;points=[];" vertex="1" connectable="0" parent="22hJQKztaAWEVZTj3P5C-30">
          <mxGeometry x="-0.0691" y="-8" relative="1" as="geometry">
            <mxPoint as="offset" />
          </mxGeometry>
        </mxCell>
        <mxCell id="22hJQKztaAWEVZTj3P5C-18" value="send_msg" style="sketch=0;points=[[0,0,0],[0.25,0,0],[0.5,0,0],[0.75,0,0],[1,0,0],[0,1,0],[0.25,1,0],[0.5,1,0],[0.75,1,0],[1,1,0],[0,0.25,0],[0,0.5,0],[0,0.75,0],[1,0.25,0],[1,0.5,0],[1,0.75,0]];outlineConnect=0;fontColor=#232F3E;fillColor=#ED7100;strokeColor=#ffffff;dashed=0;verticalLabelPosition=bottom;verticalAlign=top;align=center;html=1;fontSize=12;fontStyle=0;aspect=fixed;shape=mxgraph.aws4.resourceIcon;resIcon=mxgraph.aws4.lambda;" vertex="1" parent="1">
          <mxGeometry x="549" y="420" width="78" height="78" as="geometry" />
        </mxCell>
        <mxCell id="22hJQKztaAWEVZTj3P5C-19" style="edgeStyle=orthogonalEdgeStyle;rounded=0;orthogonalLoop=1;jettySize=auto;html=1;entryX=0.5;entryY=0;entryDx=0;entryDy=0;entryPerimeter=0;" edge="1" parent="1" source="D-xqw-UxvCrUXcZRyzRA-5" target="D-xqw-UxvCrUXcZRyzRA-6">
          <mxGeometry relative="1" as="geometry">
            <Array as="points">
              <mxPoint x="479" y="380" />
              <mxPoint x="369" y="380" />
            </Array>
          </mxGeometry>
        </mxCell>
        <mxCell id="22hJQKztaAWEVZTj3P5C-20" style="edgeStyle=orthogonalEdgeStyle;rounded=0;orthogonalLoop=1;jettySize=auto;html=1;entryX=0.5;entryY=0;entryDx=0;entryDy=0;entryPerimeter=0;" edge="1" parent="1" source="D-xqw-UxvCrUXcZRyzRA-5" target="22hJQKztaAWEVZTj3P5C-17">
          <mxGeometry relative="1" as="geometry" />
        </mxCell>
        <mxCell id="22hJQKztaAWEVZTj3P5C-26" value="DynamoDB&lt;br&gt;EmailsTable" style="sketch=0;points=[[0,0,0],[0.25,0,0],[0.5,0,0],[0.75,0,0],[1,0,0],[0,1,0],[0.25,1,0],[0.5,1,0],[0.75,1,0],[1,1,0],[0,0.25,0],[0,0.5,0],[0,0.75,0],[1,0.25,0],[1,0.5,0],[1,0.75,0]];outlineConnect=0;fontColor=#232F3E;fillColor=#C925D1;strokeColor=#ffffff;dashed=0;verticalLabelPosition=bottom;verticalAlign=top;align=center;html=1;fontSize=12;fontStyle=0;aspect=fixed;shape=mxgraph.aws4.resourceIcon;resIcon=mxgraph.aws4.dynamodb;" vertex="1" parent="1">
          <mxGeometry x="440" y="585" width="78" height="78" as="geometry" />
        </mxCell>
        <mxCell id="22hJQKztaAWEVZTj3P5C-27" style="edgeStyle=orthogonalEdgeStyle;rounded=0;orthogonalLoop=1;jettySize=auto;html=1;entryX=0.5;entryY=0;entryDx=0;entryDy=0;entryPerimeter=0;" edge="1" parent="1" source="22hJQKztaAWEVZTj3P5C-17" target="22hJQKztaAWEVZTj3P5C-26">
          <mxGeometry relative="1" as="geometry" />
        </mxCell>
        <mxCell id="22hJQKztaAWEVZTj3P5C-28" value="DynamoDB&lt;br&gt;EmailsTable" style="sketch=0;points=[[0,0,0],[0.25,0,0],[0.5,0,0],[0.75,0,0],[1,0,0],[0,1,0],[0.25,1,0],[0.5,1,0],[0.75,1,0],[1,1,0],[0,0.25,0],[0,0.5,0],[0,0.75,0],[1,0.25,0],[1,0.5,0],[1,0.75,0]];outlineConnect=0;fontColor=#232F3E;fillColor=#C925D1;strokeColor=#ffffff;dashed=0;verticalLabelPosition=bottom;verticalAlign=top;align=center;html=1;fontSize=12;fontStyle=0;aspect=fixed;shape=mxgraph.aws4.resourceIcon;resIcon=mxgraph.aws4.dynamodb;" vertex="1" parent="1">
          <mxGeometry x="549" y="585" width="78" height="78" as="geometry" />
        </mxCell>
        <mxCell id="22hJQKztaAWEVZTj3P5C-29" style="edgeStyle=orthogonalEdgeStyle;rounded=0;orthogonalLoop=1;jettySize=auto;html=1;entryX=0.5;entryY=0;entryDx=0;entryDy=0;entryPerimeter=0;" edge="1" parent="1" source="22hJQKztaAWEVZTj3P5C-18" target="22hJQKztaAWEVZTj3P5C-28">
          <mxGeometry relative="1" as="geometry" />
        </mxCell>
        <mxCell id="22hJQKztaAWEVZTj3P5C-34" value="5" style="edgeLabel;html=1;align=center;verticalAlign=middle;resizable=0;points=[];" vertex="1" connectable="0" parent="22hJQKztaAWEVZTj3P5C-29">
          <mxGeometry x="-0.1954" relative="1" as="geometry">
            <mxPoint as="offset" />
          </mxGeometry>
        </mxCell>
        <mxCell id="22hJQKztaAWEVZTj3P5C-31" value="&lt;div&gt;Example Workflow&lt;/div&gt;1. User authenticates using Cognito&lt;div&gt;2. User can then access static website on S3.&lt;/div&gt;&lt;div&gt;3. User action request sent to API GW (i.e. send message)&lt;/div&gt;&lt;div style=&quot;&quot;&gt;4. send_msg lambda is called. Payload can be validated in Lambda or API GW mapping template&lt;/div&gt;&lt;div style=&quot;&quot;&gt;5.&amp;nbsp;&lt;span style=&quot;background-color: transparent; color: light-dark(rgb(0, 0, 0), rgb(255, 255, 255));&quot;&gt;send_msg lambda sends payload to SES to send email and updates the EmailsTable with a record of the sent mail&lt;/span&gt;&lt;/div&gt;" style="text;html=1;align=left;verticalAlign=middle;resizable=0;points=[];autosize=1;strokeColor=none;fillColor=none;" vertex="1" parent="1">
          <mxGeometry x="89" y="133" width="650" height="100" as="geometry" />
        </mxCell>
      </root>
    </mxGraphModel>
  </diagram>
</mxfile>
